<svg width="20" height="21" fill="none" xmlns="http://www.w3.org/2000/svg"><path d="m18.828 12.219-1.25-.742c.04-.313.04-.625.04-.977 0-.313 0-.625-.04-.938l1.25-.742c.39-.195.547-.664.43-1.054a9.723 9.723 0 0 0-2.227-3.907.947.947 0 0 0-1.172-.156l-1.25.742a7.882 7.882 0 0 0-1.68-.976V2.023c0-.468-.273-.82-.702-.937a9.699 9.699 0 0 0-4.493 0c-.43.117-.703.469-.703.937V3.47a7.883 7.883 0 0 0-1.68.976l-1.25-.742a.947.947 0 0 0-1.171.156A9.724 9.724 0 0 0 .703 7.766c-.117.39.04.859.43 1.054l1.25.742c-.04.313-.04.626-.04.977 0 .313 0 .625.04.938l-1.25.742c-.39.195-.547.664-.43 1.054A9.724 9.724 0 0 0 2.93 17.18a.947.947 0 0 0 1.172.156l1.25-.742c.507.39 1.054.703 1.68.976v1.446c0 .468.273.82.702.937a9.698 9.698 0 0 0 4.493 0c.43-.117.703-.469.703-.937V17.57a7.881 7.881 0 0 0 1.68-.976l1.25.742c.39.234.859.156 1.171-.156a9.724 9.724 0 0 0 2.227-3.907c.117-.39-.04-.859-.43-1.054Zm-2.539 3.906-1.836-1.055c-1.055.938-1.406 1.133-2.773 1.64v2.071a8.274 8.274 0 0 1-1.72.196 7.904 7.904 0 0 1-1.679-.196v-2.07c-1.328-.469-1.719-.703-2.773-1.64l-1.836 1.054a9.38 9.38 0 0 1-1.719-2.969l1.836-1.015c-.273-1.407-.273-1.836 0-3.243L1.953 7.883a9.381 9.381 0 0 1 1.719-2.969L5.508 5.97c1.054-.938 1.445-1.172 2.773-1.64V2.257A8.275 8.275 0 0 1 10 2.062c.586 0 1.133.079 1.68.196v2.07c1.328.469 1.718.703 2.773 1.64l1.836-1.054a9.382 9.382 0 0 1 1.719 2.969l-1.836 1.015c.273 1.407.273 1.836 0 3.243l1.836 1.015a9.382 9.382 0 0 1-1.719 2.969ZM10 6.75c-2.07 0-3.75 1.719-3.75 3.75 0 2.07 1.68 3.75 3.75 3.75 2.031 0 3.75-1.68 3.75-3.75 0-2.031-1.719-3.75-3.75-3.75ZM10 13a2.468 2.468 0 0 1-2.5-2.5C7.5 9.133 8.594 8 10 8c1.367 0 2.5 1.133 2.5 2.5 0 1.406-1.133 2.5-2.5 2.5Z" fill="gray" fill-opacity=".4"/></svg>