<svg width="24" height="24" fill="none" xmlns="http://www.w3.org/2000/svg"><path d="m11.398 6.406-.312.274a.53.53 0 0 0 0 .664l4.531 4.492H3.47a.475.475 0 0 0-.469.469v.39c0 .274.195.47.469.47h12.148l-4.492 4.53a.45.45 0 0 0 0 .664l.273.274c.157.195.47.195.665 0l5.78-5.781a.45.45 0 0 0 0-.665l-5.78-5.78c-.196-.196-.508-.196-.665 0ZM20.5 5.47A.504.504 0 0 0 20.031 5h-.312a.475.475 0 0 0-.469.469V19.53c0 .274.195.469.469.469h.312a.475.475 0 0 0 .469-.469V5.47Z" fill="#CDCDCD"/><path d="m11.398 6.406.083.094.008-.007.007-.009-.098-.078Zm-.312.274-.082-.094-.009.007-.007.009.098.078Zm0 .664-.098.078.005.005.005.006.088-.09Zm4.531 4.492v.125h.304l-.216-.214-.088.089Zm0 1.328.089.088.211-.213h-.3v.125Zm-4.492 4.531.088.089-.088-.089Zm.273.938.099-.079-.01-.01-.089.089Zm-.082-12.32-.312.273.164.188.313-.274-.165-.188Zm-.328.289a.654.654 0 0 0 0 .82l.196-.156a.404.404 0 0 1 0-.508l-.196-.156Zm.01.83 4.531 4.493.176-.178-4.531-4.492-.176.178Zm4.62 4.279H3.467v.25h12.15v-.25Zm-12.15 0a.6.6 0 0 0-.593.594h.25a.35.35 0 0 1 .344-.344v-.25Zm-.593.594v.39h.25v-.39h-.25Zm0 .39c0 .343.251.594.594.594v-.25a.327.327 0 0 1-.344-.344h-.25Zm.594.594h12.148v-.25H3.47v.25Zm12.06-.213-4.493 4.531.178.176 4.492-4.53-.178-.177Zm-4.492 4.53a.594.594 0 0 0-.184.421c0 .154.065.302.184.42l.176-.176a.344.344 0 0 1-.11-.244c0-.08.034-.167.11-.243l-.176-.177Zm0 .842.273.273.177-.177-.274-.273-.176.177Zm.264.263c.211.264.612.248.85.01l-.177-.177c-.152.153-.377.137-.478.01l-.195.157Zm.85.01 5.781-5.781-.177-.177-5.78 5.781.176.177Zm5.781-5.781a.594.594 0 0 0 .183-.42.593.593 0 0 0-.183-.42l-.177.176c.077.076.11.163.11.244a.345.345 0 0 1-.11.243l.177.177Zm0-.84-5.781-5.782-.177.177 5.781 5.78.177-.176Zm-5.781-5.782c-.238-.238-.639-.254-.85.01l.195.156c.101-.126.325-.142.478.01l.177-.176Zm8.474-.85a.595.595 0 0 0-.183-.41.595.595 0 0 0-.41-.183v.25c.076 0 .163.04.233.11s.11.157.11.234h.25Zm-.594-.593h-.312v.25h.312v-.25Zm-.312 0a.6.6 0 0 0-.594.594h.25a.35.35 0 0 1 .344-.344v-.25Zm-.594.594V19.53h.25V5.47h-.25Zm0 14.062c0 .343.251.594.594.594v-.25a.327.327 0 0 1-.344-.344h-.25Zm.594.594h.312v-.25h-.312v.25Zm.312 0a.6.6 0 0 0 .594-.594h-.25a.35.35 0 0 1-.344.344v.25Zm.594-.594V5.47h-.25V19.53h.25Z" fill="#CDCDCD"/></svg>